<svg width="72" height="115" viewBox="0 0 72 115" fill="none" xmlns="http://www.w3.org/2000/svg">
<path d="M66.3287 6.41545C62.9736 2.27857 58.4103 0 53.4794 0C46.2944 0 41.2047 2.60847 36.2826 5.13096C35.5465 5.50911 34.8393 5.8706 34.1321 6.22155C33.8356 6.00659 33.5364 5.78725 33.2319 5.56351C29.6855 2.95504 25.6662 0 18.2058 0C13.2749 0 8.71158 2.27857 5.35645 6.41545C1.85216 10.7366 0 16.6282 0 23.4543C0 32.1203 3.60606 39.3622 7.09455 46.3673C7.92895 48.044 8.79317 49.7777 9.59335 51.5035C10.7418 53.983 13.2582 55.5842 16.0035 55.5842H16.2045V57.5004C16.2045 60.4151 18.576 62.7858 21.4898 62.7858H23.4061V70.1866L23.0525 70.2366C22.1312 70.3682 21.4907 71.2219 21.6223 72.1423C21.7425 72.9828 22.4637 73.5891 23.2885 73.5891C23.3271 73.5891 23.3674 73.5838 23.4061 73.5812V77.3882L23.0525 77.4391C22.1312 77.5698 21.4907 78.4235 21.6223 79.3447C21.7425 80.1844 22.4637 80.7907 23.2885 80.7907C23.3271 80.7907 23.3674 80.7854 23.4061 80.7828V84.5898L23.0525 84.6407C22.1312 84.7723 21.4907 85.626 21.6223 86.5463C21.7425 87.3869 22.4637 87.9931 23.2885 87.9931C23.3271 87.9931 23.3674 87.987 23.4061 87.9844V91.7922L23.0525 91.8422C22.1312 91.9739 21.4907 92.8276 21.6223 93.7488C21.7425 94.5885 22.4637 95.1947 23.2885 95.1947C23.3271 95.1947 23.3674 95.1895 23.4061 95.1868V98.9938L23.0525 99.0447C22.1312 99.1763 21.4907 100.03 21.6223 100.95C21.7425 101.791 22.4637 102.397 23.2885 102.397C23.3271 102.397 23.3674 102.391 23.4061 102.388V103.316C23.4061 104.273 23.6666 105.214 24.1597 106.035L28.5239 113.308C29.1503 114.352 30.2953 115 31.5122 115H40.2765C41.4934 115 42.6384 114.352 43.2648 113.308L47.629 106.035C48.1212 105.214 48.3818 104.273 48.3818 103.316V98.8298L48.7362 98.7789C49.6575 98.6473 50.2971 97.7936 50.1655 96.8732C50.04 95.9932 49.2548 95.3711 48.3818 95.4325V91.6273L48.7362 91.5773C49.6575 91.4457 50.2971 90.592 50.1655 89.6707C50.04 88.7907 49.2548 88.1686 48.3818 88.23V84.4257L48.7362 84.3748C49.6575 84.2432 50.2971 83.3904 50.1655 82.4691C50.04 81.5891 49.2548 80.967 48.3818 81.0285V77.2232L48.7362 77.1732C49.6575 77.0416 50.2971 76.1879 50.1655 75.2675C50.04 74.3875 49.2548 73.7654 48.3818 73.8269V70.0216L48.7362 69.9707C49.6575 69.8391 50.2971 68.9863 50.1655 68.0651C50.04 67.185 49.2548 66.563 48.3818 66.6244V62.7858H50.298C53.2126 62.7858 55.5842 60.4151 55.5842 57.5004V55.5842H55.7816C58.5314 55.5842 61.0495 53.9777 62.1971 51.493C62.9736 49.8101 63.8088 48.1203 64.6152 46.4857C68.0914 39.4456 71.686 32.1659 71.686 23.4543C71.686 16.6282 69.8339 10.7366 66.3287 6.41545ZM45.0126 103.317C45.0126 103.663 44.9178 104.005 44.7388 104.302L40.3756 111.576C40.3545 111.611 40.3168 111.632 40.2765 111.632H31.5114C31.471 111.632 31.4333 111.61 31.4122 111.576L27.0481 104.302C26.87 104.005 26.7752 103.663 26.7752 103.316V101.916L45.0126 99.3114V103.317ZM45.0126 88.7056L35.6553 90.0427C34.734 90.1743 34.0935 91.028 34.2251 91.9484C34.3453 92.7889 35.0665 93.3952 35.8913 93.3952C35.9702 93.3952 36.051 93.39 36.1317 93.3777L45.0126 92.1098V95.9081L26.7752 98.5139V94.7148L28.9301 94.4068C29.8513 94.2752 30.4918 93.4215 30.3602 92.5012C30.2286 91.5799 29.374 90.9394 28.4537 91.0719L26.7752 91.3114V87.5123L45.0126 84.9074V88.7056ZM45.0126 81.504L26.7752 84.109V80.3107L45.0126 77.7049V81.504ZM45.0126 74.3015L26.7752 76.9074V73.1083L45.0126 70.5033V74.3015ZM45.0126 67.0999L26.7752 69.7049V62.7858H45.0126V67.0999ZM61.5943 44.9942C60.7775 46.648 59.9334 48.3581 59.1376 50.0804C58.5393 51.3772 57.2214 52.2151 55.7808 52.2151H50.2971C49.3662 52.2151 48.6125 52.9687 48.6125 53.8996C48.6125 54.8297 49.3662 55.5842 50.2971 55.5842H52.2142V57.5004C52.2142 58.5568 51.3543 59.4167 50.298 59.4167H21.4898C20.4326 59.4167 19.5736 58.5568 19.5736 57.5004V55.5842H43.0964C44.0264 55.5842 44.781 54.8297 44.781 53.8996C44.781 52.9687 44.0264 52.2151 43.0964 52.2151H16.0035C14.5655 52.2151 13.2485 51.3798 12.6502 50.0865C11.8298 48.3177 10.9559 46.5629 10.1101 44.8652C6.64357 37.9031 3.36829 31.3271 3.36829 23.4543C3.36829 10.2681 10.8322 3.36917 18.2058 3.36917C24.5607 3.36917 27.9544 5.86446 31.2359 8.27727C33.5215 9.95834 35.8843 11.6956 39.0402 12.3703C39.9501 12.5651 40.845 11.9851 41.0398 11.0753C41.2346 10.1654 40.6546 9.27047 39.7448 9.07569C38.9393 8.90372 38.1962 8.637 37.4828 8.30184C37.5943 8.24393 37.7083 8.18602 37.8198 8.12987C42.3857 5.789 47.1078 3.36917 53.4794 3.36917C60.8521 3.36917 68.3169 10.2681 68.3169 23.4543C68.3169 31.3797 65.0512 37.9926 61.5943 44.9942Z" fill="#9747FF"/>
</svg>
