<svg width="88" height="116" viewBox="0 0 88 116" fill="none" xmlns="http://www.w3.org/2000/svg">
<path d="M87.0332 25.318C87.1022 17.6372 84.7673 11.1845 80.2805 6.65797C76.0256 2.36413 70.0826 0 63.5467 0C56.8542 0 52.1835 3.08346 47.6667 6.06605C46.2661 6.99065 44.9318 7.87101 43.5595 8.64607C42.1775 7.86835 40.8202 6.97738 39.4302 6.0634C34.8949 3.08257 30.2055 0 23.4874 0C11.7968 0 0 7.82411 0 25.3029C0 37.4837 4.2266 48.0259 8.3134 58.2194C8.5691 58.8565 8.82391 59.4935 9.07873 60.1314V61.617C9.07873 64.5562 11.4694 66.9469 14.4086 66.9469C15.0899 66.9469 15.742 66.8168 16.341 66.5824V104.803C16.341 110.517 20.6127 115.401 26.0656 115.92C26.4098 115.954 26.7531 115.97 27.0946 115.97C29.7755 115.97 32.3794 114.976 34.3666 113.17C36.6096 111.13 37.896 108.224 37.896 105.193V87.0376C37.896 86.0989 37.1351 85.3388 36.1973 85.3388C35.2594 85.3388 34.4985 86.0989 34.4985 87.0376V105.194C34.4985 107.268 33.6172 109.26 32.0813 110.656C30.524 112.072 28.5023 112.74 26.3886 112.539C22.6601 112.183 19.7395 108.786 19.7395 104.804V38.0128C19.7395 34.9453 22.2354 32.4493 25.3029 32.4493H61.617C64.6854 32.4493 67.1814 34.9453 67.1814 38.0128V105.194C67.1814 107.269 66.3001 109.26 64.7642 110.656C63.2069 112.072 61.1843 112.74 59.0706 112.539C55.3421 112.183 52.4215 108.786 52.4215 104.804V77.9589C52.4215 73.0174 48.4019 68.9969 43.4604 68.9969C38.5189 68.9969 34.4985 73.0174 34.4985 77.9589V79.7745C34.4985 80.7132 35.2594 81.4732 36.1973 81.4732C37.136 81.4732 37.896 80.7132 37.896 79.7745V77.9589C37.896 74.8905 40.392 72.3945 43.4604 72.3945C46.5288 72.3945 49.0239 74.8905 49.0239 77.9589V104.804C49.0239 110.518 53.2956 115.401 58.7485 115.921C61.7833 116.21 64.8084 115.208 67.0495 113.17C69.2925 111.131 70.5789 108.224 70.5789 105.194V66.5833C71.1788 66.8177 71.83 66.9478 72.5113 66.9478C75.4505 66.9478 77.8412 64.5562 77.8412 61.617V60.4155C78.0341 59.9324 78.227 59.4484 78.4199 58.9644C82.6004 48.4975 86.9235 37.6739 87.0332 25.318ZM61.617 21.7886H25.3029C22.4504 21.7886 19.6448 22.5398 17.1886 23.9607C16.3764 24.4306 16.0995 25.4702 16.5693 26.2815C17.0391 27.0937 18.0787 27.3707 18.8901 26.9017C20.8295 25.779 23.0476 25.1862 25.3029 25.1862H61.617C68.6899 25.1862 74.4445 30.9399 74.4445 38.0128V61.617C74.4445 62.6823 73.5775 63.5494 72.5113 63.5494C71.446 63.5494 70.5789 62.6823 70.5789 61.617V38.0128C70.5789 33.0713 66.5585 29.0518 61.6179 29.0518H25.3029C20.3615 29.0518 16.341 33.0713 16.341 38.0128V61.617C16.341 62.6832 15.4748 63.5494 14.4086 63.5494C13.3434 63.5494 12.4763 62.6823 12.4763 61.617V38.0128C12.4763 35.7575 13.07 33.5394 14.1919 31.5999C14.6617 30.7877 14.3839 29.749 13.5716 29.2792C12.7603 28.8093 11.7207 29.0863 11.2509 29.8985C9.82991 32.3546 9.07873 35.1603 9.07873 38.0128V50.9005C6.00854 42.8667 3.39756 34.4967 3.39756 25.3029C3.39756 18.2592 5.56792 12.486 9.67419 8.60803C13.2319 5.24763 18.1371 3.39756 23.4874 3.39756C29.1889 3.39756 33.2571 6.07136 37.5642 8.90266C40.9344 11.1181 44.4204 13.4088 48.6886 14.2591C49.6087 14.4423 50.5033 13.845 50.6864 12.9249C50.8696 12.0047 50.2723 11.1102 49.3522 10.927C48.6452 10.7864 47.9595 10.5944 47.2897 10.3634C48.0515 9.88123 48.8018 9.38752 49.5389 8.90089C53.8256 6.07048 57.8744 3.39756 63.5467 3.39756C69.1695 3.39756 74.2552 5.40512 77.8678 9.04953C81.7015 12.9187 83.6967 18.5335 83.6356 25.2879C83.5542 34.5082 80.9344 42.9879 77.8412 51.1412V38.0128C77.8412 29.0668 70.563 21.7886 61.617 21.7886Z" fill="#9747FF"/>
</svg>
