<svg width="123" height="115" viewBox="0 0 123 115" fill="none" xmlns="http://www.w3.org/2000/svg">
<path d="M121.531 88.3032C120.605 87.9475 119.565 88.409 119.209 89.3356C117.817 92.957 117.169 96.2676 117.169 99.757V109.36C117.169 110.488 116.251 111.406 115.124 111.406C113.997 111.406 113.08 110.488 113.08 109.36V95.9157C113.08 92.8063 110.55 90.2763 107.441 90.2763C104.332 90.2763 101.802 92.8063 101.802 95.9157V109.36C101.802 110.488 100.885 111.406 99.758 111.406C98.631 111.406 97.7137 110.488 97.7137 109.36V99.757C97.7137 93.3295 95.4421 88.5147 93.4381 84.2681C91.6859 80.5541 90.0311 77.0469 90.0311 72.8658C90.0311 68.124 93.015 65.0595 97.6332 65.0595C100.136 65.0595 102.474 66.5777 104.736 68.0472C106.932 69.4737 109.007 70.8215 111.283 70.8215C112.275 70.8215 113.08 70.0166 113.08 69.0244C113.08 68.0762 112.345 67.3012 111.415 67.2338C113.282 66.0666 115.211 65.0595 117.249 65.0595C118.33 65.0595 119.341 65.2299 120.252 65.5668C121.183 65.9094 122.216 65.4339 122.56 64.5026C122.903 63.5713 122.428 62.5379 121.497 62.1944C120.185 61.7105 118.756 61.4653 117.249 61.4653C113.681 61.4653 110.763 63.3607 108.189 65.0333C107.933 65.1999 107.685 65.36 107.442 65.5163C107.195 65.3581 106.946 65.1971 106.694 65.0333C104.12 63.3607 101.201 61.4653 97.6332 61.4653C91.041 61.4653 86.4368 66.1537 86.4368 72.8667C86.4368 75.7982 87.0976 78.4031 88.0168 80.847C81.6838 81.8729 76.8325 87.3766 76.8325 93.995V103.599C76.8325 107.904 73.33 111.406 69.0253 111.406H53.659C49.3543 111.406 45.8518 107.904 45.8518 103.599V93.995C45.8518 87.3775 41.0005 81.8729 34.6685 80.847C35.5867 78.4031 36.2485 75.7992 36.2485 72.8667C36.2485 66.1537 31.6443 61.4653 25.0511 61.4653C21.4831 61.4653 18.5655 63.3616 15.9906 65.0342C15.7351 65.1999 15.487 65.3609 15.2437 65.5163C14.9966 65.359 14.7476 65.1971 14.4958 65.0342C11.9218 63.3616 9.00336 61.4653 5.43532 61.4653C3.92274 61.4653 2.48879 61.7124 1.17278 62.201C0.242391 62.5454 -0.232161 63.5797 0.112287 64.5101C0.457671 65.4414 1.49195 65.916 2.42234 65.5706C3.33681 65.2317 4.3505 65.0595 5.43532 65.0595C7.93819 65.0595 10.2763 66.5786 12.5377 68.0482C14.7345 69.4746 16.8087 70.8225 19.085 70.8225C20.0772 70.8225 20.8821 70.0175 20.8821 69.0253C20.8821 68.0772 20.1474 67.3022 19.217 67.2348C21.0834 66.0676 23.0134 65.0595 25.0511 65.0595C29.6693 65.0595 32.6542 68.124 32.6542 72.8667C32.6542 77.0478 30.9994 80.555 29.2472 84.2691C27.2423 88.5157 24.9715 93.3305 24.9715 99.758C24.9715 100.75 25.7756 101.555 26.7686 101.555C27.7608 101.555 28.5658 100.75 28.5658 99.758C28.5658 94.1354 30.5641 89.8991 32.497 85.8022C32.7338 85.3024 32.9706 84.7998 33.2046 84.2934C38.2552 84.6406 42.2585 88.8583 42.2585 93.995V103.599C42.2585 109.886 47.3728 115 53.659 115H69.0253C75.3124 115 80.4268 109.886 80.4268 103.599V93.995C80.4268 88.8573 84.43 84.6406 89.4807 84.2934C89.7147 84.7998 89.9515 85.3015 90.1874 85.8022C92.1202 89.8991 94.1195 94.1354 94.1195 99.757V109.361C94.1195 112.471 96.6495 115 99.758 115C102.867 115 105.396 112.47 105.396 109.361V95.9157C105.396 94.7888 106.314 93.8715 107.442 93.8715C108.569 93.8715 109.486 94.7888 109.486 95.9157V109.361C109.486 112.471 112.015 115 115.124 115C118.234 115 120.763 112.47 120.763 109.361V99.757C120.763 96.7235 121.336 93.8219 122.564 90.6264C122.92 89.6997 122.458 88.6598 121.531 88.3032Z" fill="#9747FF"/>
<path d="M26.769 105.643C25.7759 105.643 24.9718 106.447 24.9718 107.44V109.361C24.9718 110.488 24.0545 111.406 22.9276 111.406C21.7997 111.406 20.8824 110.488 20.8824 109.361V95.9158C20.8824 92.8063 18.3533 90.2763 15.2439 90.2763C12.1354 90.2763 9.60541 92.8063 9.60541 95.9158V109.361C9.60541 110.488 8.68812 111.406 7.56117 111.406C6.43422 111.406 5.51693 110.488 5.51693 109.361V99.7571C5.51693 96.3164 4.88887 93.0581 3.54009 89.5032C3.18815 88.5747 2.15012 88.1076 1.22253 88.4605C0.294016 88.8124 -0.172115 89.8504 0.179823 90.778C1.36855 93.9127 1.92267 96.7656 1.92267 99.7571V109.361C1.92267 112.47 4.45176 115 7.56117 115C10.6706 115 13.1997 112.47 13.1997 109.361V95.9158C13.1997 94.7879 14.117 93.8706 15.2439 93.8706C16.3718 93.8706 17.2881 94.7879 17.2881 95.9158V109.361C17.2881 112.47 19.8182 115 22.9276 115C26.0361 115 28.5661 112.47 28.5661 109.361V107.44C28.5661 106.447 27.7611 105.643 26.769 105.643Z" fill="#9747FF"/>
<path d="M40.3492 67.6017C40.4718 72.3594 42.3064 76.2625 44.0885 80.0393C46.0214 84.1362 48.0206 88.3725 48.0206 93.9951V103.598C48.0206 106.708 50.5507 109.237 53.6591 109.237C56.7685 109.237 59.2976 106.708 59.2976 103.598V90.1528C59.2976 89.0258 60.2149 88.1086 61.3418 88.1086C62.4697 88.1086 63.387 89.0258 63.387 90.1528V103.598C63.387 106.708 65.916 109.237 69.0254 109.237C72.1339 109.237 74.6639 106.708 74.6639 103.598V93.9951C74.6639 88.3725 76.6623 84.1362 78.596 80.0393C80.3782 76.2625 82.2137 72.3594 82.3354 67.6017C86.7112 60.0444 89.1401 52.5527 89.5472 45.3258C89.8814 39.3888 88.864 33.6314 86.5212 28.2148C83.2461 20.6416 78.3443 15.9279 76.5593 14.3788C76.1091 6.37416 69.4569 0 61.3427 0C53.2276 0 46.5755 6.37416 46.1262 14.3788C44.3403 15.9279 39.4385 20.6416 36.1634 28.2148C33.8215 33.6324 32.8032 39.3888 33.1373 45.3258C33.5445 52.5527 35.9734 60.0444 40.3492 67.6017ZM61.3427 30.8833C62.8207 31.9897 65.8215 34.4841 68.9056 38.5052C72.015 42.5609 75.715 48.8751 77.6301 57.5678C75.8479 56.3734 73.6418 55.7023 71.1502 55.7023C67.5821 55.7023 64.6646 57.5987 62.0897 59.2713C61.8341 59.437 61.5861 59.5989 61.3427 59.7543C61.0966 59.5961 60.8467 59.4342 60.5949 59.2713C58.0209 57.5987 55.1024 55.7023 51.5344 55.7023C49.0437 55.7023 46.8375 56.3734 45.0554 57.5678C46.9695 48.8751 50.6695 42.5609 53.7799 38.5052C56.8649 34.4832 59.8657 31.9888 61.3427 30.8833ZM75.3462 78.5061C73.3413 82.7528 71.0697 87.5675 71.0697 93.9951V103.598C71.0697 104.726 70.1533 105.643 69.0254 105.643C67.8985 105.643 66.9812 104.725 66.9812 103.598V90.1528C66.9812 87.0443 64.4521 84.5143 61.3427 84.5143C58.2334 84.5143 55.7043 87.0443 55.7043 90.1528V103.598C55.7043 104.726 54.787 105.643 53.6601 105.643C52.5322 105.643 51.6149 104.725 51.6149 103.598V93.9951C51.6149 87.5675 49.3442 82.7528 47.3392 78.5061C45.587 74.7921 43.9322 71.2839 43.9322 67.1038C43.9322 62.361 46.9171 59.2966 51.5353 59.2966C54.0382 59.2966 56.3763 60.8157 58.6377 62.2852C60.8336 63.7117 62.9077 65.0595 65.1841 65.0595C66.1772 65.0595 66.9812 64.2546 66.9812 63.2624C66.9812 62.3152 66.2483 61.5392 65.3189 61.47C67.1853 60.3037 69.1134 59.2966 71.1502 59.2966C75.7693 59.2966 78.7533 62.361 78.7533 67.1038C78.7533 71.2839 77.0984 74.7921 75.3462 78.5061ZM83.2227 29.6413C85.3409 34.5403 86.2619 39.7501 85.9586 45.1237C85.6741 50.1809 84.3 55.4084 81.8636 60.7259C80.1685 49.2758 75.4932 41.1522 71.6481 36.1764C69.5009 33.3974 67.4052 31.3036 65.7419 29.835C70.8441 28.2944 74.824 24.1469 76.1278 18.9475C78.1702 21.089 81.0867 24.7039 83.2227 29.6413ZM61.3427 3.59424C67.7656 3.59424 72.9913 8.81993 72.9913 15.2428C72.9913 21.6656 67.7656 26.8913 61.3427 26.8913H61.3418C54.919 26.8913 49.6942 21.6656 49.6942 15.2428C49.6942 8.81993 54.9199 3.59424 61.3427 3.59424ZM39.3991 29.7882C41.5295 24.7993 44.491 21.1255 46.5586 18.954C47.8643 24.1507 51.8433 28.2953 56.9435 29.835C55.2793 31.3036 53.1846 33.3974 51.0374 36.1764C47.1923 41.1522 42.517 49.2758 40.8219 60.7259C38.4023 55.4459 37.0301 50.2529 36.7325 45.2294C36.4142 39.8718 37.3119 34.677 39.3991 29.7882Z" fill="#9747FF"/>
<path d="M61.3427 22.802C65.5107 22.802 68.9019 19.4118 68.9019 15.2428C68.9019 14.2506 68.0969 13.4456 67.1048 13.4456C66.1126 13.4456 65.3076 14.2506 65.3076 15.2428C65.3076 17.4293 63.5292 19.2077 61.3427 19.2077C59.1562 19.2077 57.3768 17.4293 57.3768 15.2428C57.3768 13.0563 59.1562 11.2779 61.3427 11.2779C62.3349 11.2779 63.1398 10.4729 63.1398 9.48073C63.1398 8.48856 62.3349 7.68359 61.3427 7.68359C57.1737 7.68359 53.7835 11.0747 53.7835 15.2428C53.7835 19.4118 57.1737 22.802 61.3427 22.802Z" fill="#9747FF"/>
</svg>
