<svg width="76" height="115" viewBox="0 0 76 115" fill="none" xmlns="http://www.w3.org/2000/svg">
<path d="M74.8961 27.5006L62.2925 14.897C61.9767 14.5812 61.5476 14.4039 61.101 14.4039H14.2884C13.8418 14.4039 13.4128 14.5812 13.0969 14.897L0.493346 27.5006C-0.132226 28.1262 -0.167321 29.1299 0.413505 29.7976L4.36084 34.3363C2.66311 37.9748 1.80064 42.1818 1.80064 46.8609C1.80064 56.1953 5.16978 63.6276 8.73721 71.4968C12.409 79.5968 16.2055 87.9714 16.2055 98.9115V107.013C16.2055 111.418 19.7878 115 24.1914 115C28.595 115 32.1773 111.418 32.1773 107.013V95.3107C32.1773 94.3798 31.4236 93.6261 30.4927 93.6261C29.5627 93.6261 28.8082 94.3798 28.8082 95.3107V107.013C28.8082 109.559 26.7375 111.631 24.1914 111.631C21.6452 111.631 19.5746 109.559 19.5746 107.013V98.9115C19.5746 87.2432 15.6255 78.5317 11.8063 70.1062C8.39328 62.5783 5.17066 55.4671 5.17066 46.8609C5.17066 43.3347 5.7392 40.0322 6.82365 37.1693L36.4229 71.209C36.7432 71.5767 37.2073 71.7881 37.6943 71.7881C38.1821 71.7881 38.6462 71.5767 38.9656 71.209L68.5658 37.1693C69.6502 40.0322 70.2196 43.3338 70.2196 46.8609C70.2196 55.4671 66.9961 62.5774 63.584 70.1062C59.7648 78.5308 55.8157 87.2432 55.8157 98.9115V107.013C55.8157 109.559 53.7442 111.631 51.1989 111.631C48.6528 111.631 46.5813 109.559 46.5813 107.013V86.3079C46.5813 81.4077 42.5944 77.4209 37.6951 77.4209C32.795 77.4209 28.8082 81.4077 28.8082 86.3079V88.1074C28.8082 89.0374 29.5627 89.792 30.4927 89.792C31.4236 89.792 32.1773 89.0374 32.1773 88.1074V86.3079C32.1773 83.2651 34.6524 80.79 37.6951 80.79C40.737 80.79 43.2121 83.2651 43.2121 86.3079V107.013C43.2121 111.417 46.7945 115 51.1989 115C55.6025 115 59.1848 111.417 59.1848 107.013V98.9115C59.1848 87.9705 62.9813 79.5959 66.6522 71.4968C70.2196 63.6276 73.5888 56.1953 73.5888 46.8609C73.5888 42.18 72.7263 37.9739 71.0286 34.3371L74.9759 29.7976C75.5567 29.1299 75.5216 28.1262 74.8961 27.5006ZM43.5718 60.7779L52.5044 40.1647C52.8738 39.311 52.4816 38.3187 51.6279 37.9493C50.7751 37.5791 49.7828 37.9712 49.4126 38.8249L37.6943 65.8667L22.3155 30.3766H53.0739L52.3535 32.0384C51.9833 32.8921 52.3755 33.8835 53.2292 34.2538C53.4476 34.3485 53.6749 34.3933 53.8986 34.3933C54.5496 34.3933 55.1699 34.0134 55.4454 33.3782L56.7457 30.3766H70.0073L43.5718 60.7779ZM43.0384 17.7731H58.5347L54.9286 26.0959L43.0384 17.7731ZM50.3557 27.0075H25.0337L37.6943 18.1451L50.3557 27.0075ZM20.4608 26.0959L16.8539 17.7731H32.351L20.4608 26.0959ZM17.1838 27.0075H5.75149L13.7278 19.0312L17.1838 27.0075ZM5.38211 30.3766H18.6437L31.8176 60.7779L5.38211 30.3766ZM58.2057 27.0075L61.6617 19.0312L69.6379 27.0075H58.2057Z" fill="#9747FF"/>
<path d="M37.6944 10.5707C38.6253 10.5707 39.379 9.81701 39.379 8.88611V1.68457C39.379 0.754547 38.6253 0 37.6944 0C36.7644 0 36.0098 0.754547 36.0098 1.68457V8.88611C36.0098 9.81701 36.7644 10.5707 37.6944 10.5707Z" fill="#20CBAF"/>
<path d="M25.3846 9.63978C25.6803 10.2303 26.2751 10.5716 26.8928 10.5716C27.1464 10.5716 27.4026 10.5137 27.6447 10.3935C28.4773 9.97757 28.8143 8.96508 28.3984 8.13332L26.598 4.53255C26.1821 3.69992 25.1696 3.36213 24.3379 3.77888C23.5052 4.19476 23.1683 5.20638 23.5842 6.03901L25.3846 9.63978Z" fill="#20CBAF"/>
<path d="M47.7447 10.3934C47.986 10.5145 48.243 10.5715 48.4966 10.5715C49.1143 10.5715 49.7091 10.2302 50.0039 9.63976L51.8052 6.039C52.2211 5.20636 51.8833 4.19474 51.0515 3.77886C50.2189 3.36298 49.2073 3.6999 48.7914 4.53253L46.991 8.1333C46.5751 8.96506 46.9121 9.97756 47.7447 10.3934Z" fill="#20CBAF"/>
</svg>
