<svg width="141" height="116" viewBox="0 0 141 116" fill="none" xmlns="http://www.w3.org/2000/svg">
<path d="M138.014 82.8473L115.635 60.4674C113.981 58.8125 111.287 58.8125 109.632 60.4674L109.532 60.5679L103.106 54.1425C107.021 49.5654 109.39 43.6283 109.39 37.1474C109.39 22.7122 97.6458 10.9672 83.2095 10.9672C83.1753 10.9672 83.1411 10.9682 83.1069 10.9682C79.062 4.08665 72.4443 0 65.2753 0C59.9931 0 56.0763 1.43487 52.2888 2.82166C48.3122 4.27896 44.5514 5.654 38.9786 5.68071C34.9935 2.827 30.2327 0 22.179 0C16.1724 0 10.6135 2.77572 6.52582 7.81538C2.25647 13.0794 0 20.257 0 28.5724C0 39.9445 4.10481 48.9992 8.45001 58.586C12.9234 68.4527 17.5475 78.656 17.5475 91.9832V106.241C17.5475 111.606 21.9119 115.97 27.2764 115.97C32.6408 115.97 37.0042 111.606 37.0042 106.241V87.5964C37.0042 86.4639 36.0864 85.545 34.9529 85.545C33.8204 85.545 32.9015 86.4639 32.9015 87.5964V106.241C32.9015 109.343 30.378 111.867 27.2764 111.867C24.1737 111.867 21.6502 109.343 21.6502 106.241V91.9832C21.6502 77.7692 16.8391 67.1557 12.1873 56.8915C8.02906 47.7203 4.10267 39.0577 4.10267 28.5724C4.10267 12.5078 13.1959 4.10267 22.179 4.10267C29.9217 4.10267 34.0554 7.14229 38.0534 10.0825C40.8376 12.1296 43.7159 14.2461 47.5611 15.0677C48.668 15.3049 49.7588 14.5987 49.996 13.4907C50.2321 12.3828 49.5259 11.293 48.418 11.0559C46.9019 10.7321 45.5632 10.1349 44.264 9.37098C47.8945 8.80045 50.8304 7.72564 53.7002 6.67433C57.3103 5.35164 60.7207 4.10267 65.2753 4.10267C70.4677 4.10267 75.1762 6.72881 78.5 11.3924C66.3052 13.6168 57.0304 24.319 57.0304 37.1474C57.0304 48.0622 63.7464 57.4374 73.2616 61.3617C69.379 70.1878 65.8041 79.875 65.8041 91.9832V106.241C65.8041 109.343 63.2806 111.867 60.1779 111.867C57.0763 111.867 54.5517 109.343 54.5517 106.241V76.6292C54.5517 70.66 49.6958 65.8041 43.7266 65.8041C37.7574 65.8041 32.9015 70.66 32.9015 76.6292V78.8216C32.9015 79.9551 33.8204 80.8729 34.9529 80.8729C36.0854 80.8729 37.0042 79.9551 37.0042 78.8216V76.6292C37.0042 72.9229 40.0203 69.9068 43.7266 69.9068C47.434 69.9068 50.449 72.9229 50.449 76.6292V106.241C50.449 111.606 54.8134 115.97 60.1779 115.97C65.5424 115.97 69.9068 111.606 69.9068 106.241V91.9843C69.9068 80.452 73.2819 71.4538 77.188 62.6267C79.1218 63.084 81.1379 63.3265 83.2095 63.3265C89.6905 63.3265 95.6276 60.9578 100.205 57.0432L106.63 63.4686L106.531 63.569C105.728 64.3703 105.287 65.4366 105.287 66.5702C105.287 67.7048 105.728 68.77 106.531 69.5724L129.106 92.1488C130.322 93.3658 131.938 94.0357 133.66 94.0357C135.544 94.0357 137.33 93.2119 138.557 91.776C140.725 89.2407 140.487 85.3185 138.014 82.8473ZM61.1331 37.1474C61.1331 24.974 71.0372 15.0699 83.2095 15.0699C95.3829 15.0699 105.287 24.974 105.287 37.1474C105.287 49.3208 95.3829 59.2238 83.2095 59.2238C71.0372 59.2238 61.1331 49.3197 61.1331 37.1474ZM115.911 73.1505L119.214 69.848L130.571 81.2052L127.268 84.5076L115.911 73.1505ZM109.39 66.5702C109.39 66.5114 109.422 66.4804 109.431 66.4697L112.533 63.3682C112.561 63.3414 112.597 63.3276 112.633 63.3276C112.67 63.3276 112.706 63.3414 112.734 63.3682L116.313 66.9473L113.011 70.2498L109.431 66.6706C109.421 66.661 109.39 66.6289 109.39 66.5702ZM135.44 89.1092C134.985 89.6402 134.353 89.933 133.66 89.933C133.036 89.933 132.45 89.6894 132.009 89.2481L130.169 87.4083L133.472 84.1059L135.114 85.7491C136.065 86.7 136.211 88.2075 135.44 89.1092Z" fill="#9747FF"/>
<path d="M89.5334 25.4473C90.5302 25.9868 91.7749 25.6161 92.3133 24.6193C92.8529 23.6235 92.4822 22.3788 91.4853 21.8393C84.7672 18.2046 76.3033 19.4386 70.9025 24.8394C65.5007 30.2401 64.2677 38.7041 67.9024 45.4222C68.2732 46.1081 68.9794 46.4981 69.708 46.4981C70.0382 46.4981 70.3726 46.4179 70.6824 46.2502C71.6793 45.7117 72.05 44.467 71.5104 43.4702C68.7337 38.3355 69.676 31.8673 73.8032 27.7401C77.9305 23.6128 84.3997 22.6694 89.5334 25.4473Z" fill="#9747FF"/>
<path d="M98.5173 28.8713C97.9777 27.8745 96.733 27.5037 95.7373 28.0433C94.7405 28.5818 94.3697 29.8265 94.9082 30.8233C97.686 35.958 96.7437 42.4262 92.6165 46.5534C88.4881 50.6817 82.02 51.624 76.8863 48.8462C75.8895 48.3077 74.6448 48.6785 74.1053 49.6742C73.5668 50.671 73.9375 51.9157 74.9333 52.4553C77.5124 53.8506 80.349 54.528 83.1707 54.528C87.6986 54.528 92.1891 52.7822 95.5172 49.4552C100.918 44.0533 102.152 35.5894 98.5173 28.8713Z" fill="#9747FF"/>
</svg>
