<svg width="124" height="56" viewBox="0 0 124 56" fill="none" xmlns="http://www.w3.org/2000/svg">
<path d="M123.404 9.17924C123.417 8.34435 122.853 7.61055 122.043 7.40838C120.169 6.93946 76.6648 -3.83262 62.0646 1.45842C47.4653 -3.83262 3.96142 6.93946 2.08573 7.40838C1.27612 7.61055 0.711729 8.34435 0.724833 9.17924C0.728577 9.41136 0.780055 9.63131 0.864292 9.83536L0.860549 9.83723C1.05149 10.2996 5.6443 21.286 15.4505 32.4278C21.232 38.9965 27.6293 44.2351 34.4638 47.9996C43.0476 52.7281 52.3333 55.1251 62.0646 55.1251C71.795 55.1251 81.0817 52.7281 89.6655 47.9996C96.4999 44.2351 102.896 38.9955 108.679 32.4269C118.485 21.286 123.078 10.2996 123.269 9.83629L123.265 9.83536C123.349 9.63131 123.401 9.41043 123.404 9.17924ZM105.908 30.1338C100.406 36.3701 94.3378 41.3317 87.8759 44.8818C79.8452 49.294 71.1613 51.531 62.0646 51.531C52.9679 51.531 44.283 49.294 36.2524 44.8818C29.7905 41.3317 23.7235 36.3701 18.22 30.1338C13.6216 24.9232 10.1828 19.6724 7.85974 15.6449C10.8811 17.8407 14.8477 20.5101 19.5538 23.1973C29.7212 29.0003 45.3491 35.918 62.0646 35.918C73.8382 35.918 86.3905 32.5813 99.3724 26.0005C100.258 25.5512 100.612 24.4702 100.162 23.5848C99.714 22.6993 98.632 22.3455 97.7466 22.7948C85.2729 29.1173 73.2682 32.3239 62.0646 32.3239C46.1662 32.3239 31.1804 25.686 21.4088 20.117C16.4791 17.3081 12.3458 14.4815 9.31517 12.2464C13.3118 12.9241 18.8078 13.7636 25.3633 14.5255C26.3517 14.6416 27.2418 13.934 27.356 12.9484C27.4711 11.9619 26.7645 11.0699 25.7789 10.9557C20.0835 10.293 15.2052 9.57422 11.4333 8.95648C15.8323 8.00928 21.5399 6.86459 27.5647 5.87901C48.9498 2.38129 57.7442 3.49322 61.3561 5.04131C61.8091 5.23506 62.3201 5.23506 62.7722 5.04131C66.3841 3.49322 75.1794 2.38129 96.5645 5.87901C102.582 6.86271 108.283 8.00647 112.68 8.95274C102.294 10.6468 83.4787 13.1169 62.0646 13.1169C52.7994 13.1169 43.1627 12.6582 33.4211 11.7541C32.4318 11.6633 31.5576 12.3887 31.4649 13.3771C31.3732 14.3655 32.1004 15.2415 33.0888 15.3332C42.9409 16.2468 52.689 16.711 62.0646 16.711C84.8227 16.711 104.688 13.9518 114.829 12.238C112.346 14.0697 109.12 16.301 105.314 18.596C104.464 19.108 104.191 20.2134 104.704 21.0633C105.041 21.622 105.635 21.9318 106.244 21.9318C106.56 21.9318 106.88 21.8485 107.17 21.6735C110.753 19.5124 113.823 17.4214 116.27 15.6431C113.947 19.6715 110.509 24.9223 105.908 30.1338Z" fill="#9747FF"/>
</svg>
