<svg width="48" height="48" viewBox="0 0 48 48" fill="none" xmlns="http://www.w3.org/2000/svg">
<path d="M36.728 31.072L33.9 28.24L36.728 25.412C37.6633 24.4849 38.4062 23.3822 38.9141 22.1672C39.4221 20.9522 39.6851 19.6488 39.6879 18.3319C39.6908 17.015 39.4336 15.7105 38.9309 14.4933C38.4283 13.2761 37.6902 12.1701 36.759 11.2389C35.8278 10.3077 34.7219 9.56965 33.5047 9.06703C32.2875 8.5644 30.983 8.30715 29.6661 8.31003C28.3492 8.31292 27.0458 8.57588 25.8308 9.08383C24.6158 9.59178 23.5131 10.3347 22.586 11.27L19.758 14.1L16.928 11.272L19.76 8.44398C22.3856 5.81833 25.9468 4.34326 29.66 4.34326C33.3732 4.34326 36.9344 5.81833 39.56 8.44398C42.1856 11.0696 43.6607 14.6308 43.6607 18.344C43.6607 22.0572 42.1856 25.6183 39.56 28.244L36.73 31.072H36.728ZM31.072 36.728L28.242 39.556C25.6164 42.1816 22.0552 43.6567 18.342 43.6567C14.6288 43.6567 11.0676 42.1816 8.442 39.556C5.81636 36.9303 4.34129 33.3692 4.34129 29.656C4.34129 25.9428 5.81636 22.3816 8.442 19.756L11.272 16.928L14.1 19.76L11.272 22.588C10.3367 23.5151 9.59381 24.6178 9.08586 25.8328C8.57791 27.0478 8.31494 28.3511 8.31206 29.668C8.30917 30.9849 8.56643 32.2894 9.06905 33.5067C9.57168 34.7239 10.3098 35.8298 11.241 36.761C12.1722 37.6922 13.2781 38.4303 14.4953 38.9329C15.7125 39.4356 17.017 39.6928 18.3339 39.6899C19.6508 39.687 20.9542 39.4241 22.1692 38.9161C23.3842 38.4082 24.4869 37.6652 25.414 36.73L28.242 33.902L31.072 36.73V36.728ZM29.656 15.514L32.486 18.344L18.344 32.484L15.514 29.656L29.656 15.516V15.514Z" fill="white"/>
</svg>
