<svg width="32" height="32" viewBox="0 0 32 32" fill="none" xmlns="http://www.w3.org/2000/svg">
<path fill-rule="evenodd" clip-rule="evenodd" d="M24.366 4.59227C20.4692 -1.53076 11.5308 -1.53076 7.63402 4.59227C6.85485 5.81654 5.81652 6.85488 4.5923 7.63401C-1.53079 11.5308 -1.53074 20.4692 4.5923 24.366C5.81652 25.1451 6.85485 26.1835 7.63402 27.4077C11.5308 33.5308 20.4692 33.5308 24.366 27.4077C25.1451 26.1835 26.1835 25.1452 27.4077 24.366C33.5308 20.4692 33.5308 11.5308 27.4077 7.63401C26.1835 6.85488 25.1451 5.81654 24.366 4.59227ZM25.2155 15.691C20.2031 15.277 16.2252 11.2991 15.8112 6.28678L15.7511 5.55922L15.691 6.28678C15.277 11.2991 11.2991 15.277 6.28676 15.691L5.55921 15.7511L6.28676 15.8112C11.2991 16.2252 15.277 20.2031 15.691 25.2154L15.7511 25.943L15.8112 25.2154C16.2252 20.2031 20.2031 16.2252 25.2155 15.8112L25.943 15.7511L25.2155 15.691Z" fill="white"/>
</svg>
